<svg width="382" height="385" viewBox="0 0 382 385" xmlns="http://www.w3.org/2000/svg" xmlns:xlink="http://www.w3.org/1999/xlink"><title>Group 14</title><defs><path id="a" d="M0 68.481V.113h56.954V68.48H0z"/><path id="c" d="M.237 46h27.96V.816H.236V46z"/></defs><g fill="none" fill-rule="evenodd"><path d="M279.288 7.143c1.225.218 2.444.512 3.646.882 1.205.37 2.392.818 3.551 1.342a29.427 29.427 0 0 1 3.391 1.807 28.169 28.169 0 0 1 3.162 2.279c2.524 2.1 4.484 4.493 5.864 7.025 1.392 2.553 2.194 5.248 2.387 7.929a16.998 16.998 0 0 1-1.288 7.886c-1.067 2.518-2.776 4.846-5.14 6.813a21.35 21.35 0 0 1-4.69 2.959 24.578 24.578 0 0 1-5.364 1.764 27.978 27.978 0 0 1-5.753.573 30.195 30.195 0 0 1-5.86-.597 30.602 30.602 0 0 1-3.829-1.036 29.932 29.932 0 0 1-3.673-1.531 29.136 29.136 0 0 1-3.437-2.012 27.717 27.717 0 0 1-3.125-2.48c-2.449-2.252-4.278-4.77-5.492-7.39-1.205-2.597-1.806-5.295-1.81-7.935-.004-2.62.58-5.186 1.747-7.548 1.16-2.348 2.898-4.498 5.212-6.306a21.774 21.774 0 0 1 4.51-2.695 24.706 24.706 0 0 1 5.06-1.623 27.878 27.878 0 0 1 5.4-.571 29.997 29.997 0 0 1 5.531.465" fill="#F29100"/><g fill="#FD0"><path d="M170.416 29.018a21.844 21.844 0 0 1 1.791.445c.297.088.594.183.888.284.295.103.589.211.88.327 2.401.958 4.468 2.31 6.15 3.937a16.822 16.822 0 0 1 3.86 5.636 15.847 15.847 0 0 1 1.208 6.651c-.083 2.314-.676 4.667-1.837 6.93a18.397 18.397 0 0 1-4.037 5.244 20.452 20.452 0 0 1-5.595 3.591 21.827 21.827 0 0 1-6.534 1.7 21.417 21.417 0 0 1-7.769-.642 20.384 20.384 0 0 1-2.752-.965c-2.451-1.068-4.522-2.544-6.168-4.294a16.642 16.642 0 0 1-3.602-5.896 15.87 15.87 0 0 1-.829-6.68c.206-2.265.902-4.54 2.127-6.705a18.616 18.616 0 0 1 4.073-4.932 20.575 20.575 0 0 1 5.408-3.335 21.869 21.869 0 0 1 6.218-1.6 21.521 21.521 0 0 1 6.52.304"/><path d="M123.345 40.88c.999.215 1.97.515 2.903.896.933.382 1.826.847 2.666 1.392a15.081 15.081 0 0 1 2.35 1.88c.724.71 1.38 1.497 1.955 2.364.143.225.93 1.467 2.16 3.264a130.499 130.499 0 0 0 4.879 6.67c1.96 2.5 4.179 5.107 6.439 7.33 2.276 2.238 4.589 4.081 6.707 5.02.2.09.41.175.632.258.22.083.452.162.692.238a18.268 18.268 0 0 0 1.534.415c2.578.593 5.759.907 9.1 1.043 3.348.134 6.855.09 10.072-.033a197.385 197.385 0 0 0 12.258-.864 19.91 19.91 0 0 1 3.229-.043 19.873 19.873 0 0 1 3.112.453 20.142 20.142 0 0 1 5.356 2.04 19.664 19.664 0 0 1 4.5 3.42 18.628 18.628 0 0 1 3.308 4.586 17.765 17.765 0 0 1 1.753 5.535 17.25 17.25 0 0 1-.51 7.281 17.616 17.616 0 0 1-3.36 6.31 18.611 18.611 0 0 1-5.7 4.603 19.702 19.702 0 0 1-7.46 2.166c-.454-.04-2.955-.265-6.567-.319-3.603-.054-8.311.061-13.205.697-4.89.634-9.978 1.79-14.372 3.824-4.407 2.04-8.14 4.972-10.305 9.184l-2.668 5.197-5.692 11.08c-2.11 4.105-4.253 8.28-5.933 11.55l-3.128 6.087a22.7 22.7 0 0 1-4.49 6.037 21.766 21.766 0 0 1-5.942 4.052 20.298 20.298 0 0 1-6.75 1.796 18.604 18.604 0 0 1-6.89-.694 17.292 17.292 0 0 1-1.844-.663 19.714 19.714 0 0 1-1.796-.868 18.117 18.117 0 0 1-4.678-3.723 18.786 18.786 0 0 1-3.168-4.878 20.263 20.263 0 0 1-1.591-5.613 21.46 21.46 0 0 1 .043-5.95 51.615 51.615 0 0 1 4.888-2.029 68.594 68.594 0 0 1 4.844-1.533c1.555-.43 3.023-.78 4.325-1.055a49.622 49.622 0 0 1 3.328-.594l.812-.193a20.846 20.846 0 0 0 6.789-3.8 21.18 21.18 0 0 0 2.749-2.772 21.628 21.628 0 0 0 2.22-3.26 21.19 21.19 0 0 0 1.564-3.582 19.86 19.86 0 0 0 .837-3.686c.158-1.235.196-2.474.112-3.703a18.535 18.535 0 0 0-.611-3.63 17.53 17.53 0 0 0-1.536-3.799 16.704 16.704 0 0 0-2.303-3.222 16.556 16.556 0 0 0-2.964-2.563 16.888 16.888 0 0 0-3.523-1.818l.122-.217.093-.164.062-.109.03-.052c2.06-3.585 2.318-7.657 1.543-11.739-.766-4.035-2.54-8.075-4.575-11.678-2.013-3.562-4.287-6.705-6.112-9.014-1.81-2.292-3.187-3.775-3.437-4.044a14.293 14.293 0 0 1-1.958-6.08c-.183-2.088.083-4.207.754-6.238a17.685 17.685 0 0 1 3.167-5.687 19.536 19.536 0 0 1 5.315-4.47 20.24 20.24 0 0 1 3.41-1.575 19.888 19.888 0 0 1 3.515-.89 19.369 19.369 0 0 1 3.519-.233c1.163.03 2.31.167 3.422.408"/></g><g fill="#E61D72"><path d="M89.18 76.52c1.841.45 3.473 1.241 4.848 2.296a12.259 12.259 0 0 1 3.324 3.892 12.85 12.85 0 0 1 1.496 5.028c.16 1.817-.045 3.74-.66 5.68a16.592 16.592 0 0 1-2.947 5.422 17.764 17.764 0 0 1-4.619 4.006 17.127 17.127 0 0 1-5.653 2.17c-1.982.371-4.024.37-6.017-.067a5.408 5.408 0 0 1-.29-.064c-.048-.01-.096-.024-.143-.036l-.145-.038c-1.89-.498-3.549-1.36-4.928-2.493a12.283 12.283 0 0 1-3.238-4.099 12.978 12.978 0 0 1-1.293-5.136c-.08-1.818.2-3.722.881-5.626a16.768 16.768 0 0 1 3.042-5.228 17.794 17.794 0 0 1 4.54-3.797 17.096 17.096 0 0 1 5.448-2.058c1.905-.36 3.87-.375 5.798.012l.135.033.138.034.141.034.142.035"/><path d="M111.246 106.235c1.096.284 2.143.704 3.116 1.248a12.735 12.735 0 0 1 4.785 4.679 13.221 13.221 0 0 1 1.373 3.307c.508 1.889.602 3.826.336 5.713a15.691 15.691 0 0 1-1.842 5.429 16.344 16.344 0 0 1-3.716 4.513 15.781 15.781 0 0 1-5.251 2.945c-.338.048-2.2.309-4.866.893-2.666.585-6.14 1.494-9.705 2.84-3.573 1.35-7.247 3.14-10.316 5.492-3.082 2.36-5.565 5.297-6.73 8.939-.047.15-.606 1.903-1.432 4.483l-3.05 9.534a81663.052 81663.052 0 0 1-4.84 15.115 20.043 20.043 0 0 1-3.184 6.095 19.023 19.023 0 0 1-4.811 4.442c-1.804 1.154-3.766 1.952-5.776 2.325-2.01.372-4.063.318-6.05-.23-.05-.015-.098-.032-.146-.048-.05-.015-.097-.031-.145-.047l-.144-.047a12.528 12.528 0 0 1-2.66-1.194 12.256 12.256 0 0 1-.757-.492l-.86-6.908c-.08-.62.099-1.493.535-2.546.434-1.05 1.125-2.277 2.07-3.606.942-1.326 2.138-2.754 3.585-4.21a44.113 44.113 0 0 1 5.083-4.367l.366-.273.324-.321a17.825 17.825 0 0 0 1.92-2.32 17.365 17.365 0 0 0 1.479-2.57c.415-.89.752-1.808 1.006-2.747.253-.937.424-1.893.506-2.857a15 15 0 0 0-.004-2.82 13.44 13.44 0 0 0-.522-2.63 12.262 12.262 0 0 0-1.012-2.38 11.654 11.654 0 0 0-2.565-3.147 10.768 10.768 0 0 0-1.217-.9 10.68 10.68 0 0 0-2.746-1.251 10.992 10.992 0 0 0-1.311-.305 11.53 11.53 0 0 0-1.334-.152l.292-.822a106.147 106.147 0 0 0 .367-1.031c.035-.098.056-.156.06-.171 1.164-3.186.879-6.436-.206-9.518-1.076-3.056-2.938-5.946-4.96-8.452-2.003-2.486-4.168-4.598-5.882-6.13-1.706-1.521-2.975-2.473-3.205-2.646a11.155 11.155 0 0 1-2.312-4.564c-.41-1.657-.467-3.418-.193-5.181a15.703 15.703 0 0 1 1.787-5.162 17.355 17.355 0 0 1 3.643-4.546 17.341 17.341 0 0 1 3.258-2.3 16.049 16.049 0 0 1 3.488-1.4 14.546 14.546 0 0 1 3.54-.503 12.779 12.779 0 0 1 3.414.402c.512.137 1.013.306 1.5.508.486.203.959.437 1.413.706a10.843 10.843 0 0 1 2.487 2.018c.134.153.868.997 2.002 2.208a96.456 96.456 0 0 0 4.43 4.438c1.758 1.643 3.72 3.332 5.677 4.728 1.966 1.404 3.922 2.51 5.648 2.973l.32.07c1.719.386 4.144.29 6.828-.075 2.685-.366 5.627-1.002 8.382-1.697a145.25 145.25 0 0 0 10.729-3.168 15.022 15.022 0 0 1 2.058-.52 14.218 14.218 0 0 1 4.025-.141c.652.072 1.293.19 1.918.352"/></g><path d="M30.444 140.996a7.58 7.58 0 0 1 2.012.932c.615.405 1.17.901 1.647 1.48a7.902 7.902 0 0 1 1.186 1.972c.308.735.523 1.542.629 2.414a10.79 10.79 0 0 1-.304 4.02 12.671 12.671 0 0 1-1.696 3.753 12.98 12.98 0 0 1-2.827 3.06 11.451 11.451 0 0 1-3.675 1.935c-.467.143-.93.251-1.386.324-.457.072-.906.11-1.347.114a8.55 8.55 0 0 1-1.29-.085 7.978 7.978 0 0 1-1.218-.274 7.472 7.472 0 0 1-2.035-.989 7.468 7.468 0 0 1-1.638-1.549 7.95 7.95 0 0 1-1.145-2.037 9.16 9.16 0 0 1-.562-2.455 10.946 10.946 0 0 1 .397-4.018 12.954 12.954 0 0 1 4.552-6.645 11.429 11.429 0 0 1 3.6-1.86c.454-.136.904-.238 1.346-.307.443-.07.879-.107 1.307-.114a8.52 8.52 0 0 1 1.256.075c.408.055.806.14 1.19.254" fill="#82368B"/><g transform="translate(0 150.448)"><mask id="b" fill="#fff"><use xlink:href="#a"/></mask><path d="M51.593.432a7.157 7.157 0 0 1 3.357 2.163 7.917 7.917 0 0 1 1.644 3.035 9.538 9.538 0 0 1 .314 3.551 11.143 11.143 0 0 1-.996 3.64 11.746 11.746 0 0 1-2.279 3.285c-.184.134-1.193.875-2.587 2.052a53.655 53.655 0 0 0-4.916 4.691c-1.74 1.9-3.426 4.075-4.61 6.356-1.193 2.293-1.879 4.695-1.6 7.032a9974.906 9974.906 0 0 1 1.813 15.212l.387 3.276a12.163 12.163 0 0 1-.269 4.238 13.556 13.556 0 0 1-1.64 3.935 12.917 12.917 0 0 1-2.758 3.185c-1.077.887-2.294 1.571-3.606 1.978a9.145 9.145 0 0 1-1.354.321 8.36 8.36 0 0 1-1.318.1 7.773 7.773 0 0 1-1.267-.11 7.426 7.426 0 0 1-3.215-1.381 7.805 7.805 0 0 1-1.628-1.653 8.804 8.804 0 0 1-1.148-2.164 10.357 10.357 0 0 1-.579-2.604l-.334-3.523-.637-6.718-.613-6.48c-.165-1.75-.275-2.93-.279-2.996a6.647 6.647 0 0 0-.982-2.962c-.537-.872-1.26-1.636-2.103-2.305-.84-.668-1.8-1.242-2.809-1.734a24.643 24.643 0 0 0-3.106-1.242 35.092 35.092 0 0 0-2.792-.786 39.656 39.656 0 0 0-2.367-.487 37.106 37.106 0 0 0-1.673-.25c-.412-.052-.663-.074-.709-.079a6.796 6.796 0 0 1-2.833-1.783c-.757-.795-1.32-1.772-1.673-2.863-.352-1.088-.492-2.29-.402-3.544.09-1.25.407-2.55.972-3.838a12.717 12.717 0 0 1 2.2-3.419 11.94 11.94 0 0 1 2.972-2.406c1.077-.61 2.222-1.019 3.371-1.19 1.15-.172 2.303-.106 3.4.235l.035.01.09.03c.04.011.087.026.144.044l.193.061a72.424 72.424 0 0 0 1.52.455 69.826 69.826 0 0 0 2.293.612 11.049 11.049 0 0 0 2.988 1.454c.597.188 1.212.328 1.84.42a12.51 12.51 0 0 0 1.913.127 13.378 13.378 0 0 0 1.962-.166c.658-.104 1.32-.257 1.981-.46.863-.266 1.7-.605 2.505-1.01a17.313 17.313 0 0 0 2.306-1.399 18.439 18.439 0 0 0 2.071-1.735 19.212 19.212 0 0 0 1.801-2.014 108.319 108.319 0 0 0 4.11-3.747c.527-.504.958-.926 1.266-1.23.306-.303.49-.49.524-.524a10.984 10.984 0 0 1 2.141-1.662A9.89 9.89 0 0 1 46.944.46a8.837 8.837 0 0 1 2.367-.346c.782-.006 1.551.1 2.282.32" fill="#82368B" mask="url(#b)"/></g><path d="M220.892.396c2.019.363 3.96.97 5.768 1.79a22.52 22.52 0 0 1 4.986 3.081 19.633 19.633 0 0 1 3.86 4.211 17.132 17.132 0 0 1 2.362 5.174c.073.301.474 1.96 1.163 4.406.693 2.464 1.68 5.74 2.918 9.241 1.252 3.54 2.76 7.314 4.479 10.704 1.736 3.427 3.682 6.453 5.775 8.421 2.105 1.985 5.544 4 9.563 5.918 4.049 1.933 8.687 3.77 13.132 5.377a274.581 274.581 0 0 0 12.019 4.011c3.283 1.015 5.537 1.65 5.947 1.765a29.868 29.868 0 0 1 8.89 4.324 28.496 28.496 0 0 1 6.708 6.69c1.807 2.547 3.127 5.35 3.847 8.257.727 2.931.843 5.97.232 8.957a18.266 18.266 0 0 1-3.398 7.51c-1.656 2.164-3.783 3.947-6.247 5.278-2.468 1.335-5.268 2.214-8.257 2.57-2.987.356-6.157.19-9.365-.563a33.927 33.927 0 0 1-1.22-.309 26.381 26.381 0 0 1-1.211-.363 87.78 87.78 0 0 0-2.687-1.31 143.688 143.688 0 0 0-6.316-2.778 142.652 142.652 0 0 0-8.875-3.324c-3.261-1.096-6.785-2.137-10.411-2.977-2.76-.64-5.558-1.153-8.312-1.467-2.75-.313-5.458-.429-8.047-.278-2.586.152-5.057.571-7.333 1.33-2.28.757-4.367 1.857-6.19 3.372-.17.14-2.19 1.814-5.158 4.276-2.983 2.475-6.935 5.752-10.94 9.076a83948.765 83948.765 0 0 0-17.24 14.302 23.593 23.593 0 0 1-10.332 4.977 24.21 24.21 0 0 1-5.613.492 24.441 24.441 0 0 1-5.556-.808 23.971 23.971 0 0 1-6.84-3.018 23.54 23.54 0 0 1-3.017-2.309 23.777 23.777 0 0 1-3.52-3.975 23.083 23.083 0 0 1-2.093-3.644c1.176-1.058 2.55-1.966 4.052-2.743 1.5-.777 3.126-1.427 4.807-1.969a47.96 47.96 0 0 1 5.135-1.327 66.13 66.13 0 0 1 5.035-.815 85.055 85.055 0 0 1 6.825-.567 100.56 100.56 0 0 1 9.84.051c.973.055 1.53.105 1.549.106a28.694 28.694 0 0 0 5.2-.864 24.365 24.365 0 0 0 4.608-1.726 22.254 22.254 0 0 0 3.975-2.529 22.242 22.242 0 0 0 5.834-7.078 21.024 21.024 0 0 0 2.354-8.502 21.557 21.557 0 0 0-.206-4.464 21.772 21.772 0 0 0-2.14-6.678 23.042 23.042 0 0 0-4.031-5.616 24.124 24.124 0 0 0-5.534-4.233 24.68 24.68 0 0 0-8.011-2.8 32.25 32.25 0 0 0-.673-.103c-.225-.03-.45-.059-.675-.084l1.207-.945.922-.722.602-.472.25-.195c3.703-2.84 5.608-7.015 6.374-11.663.755-4.59.396-9.623-.426-14.299-.811-4.613-2.073-8.884-3.165-12.08-1.082-3.166-2.006-5.296-2.174-5.682a15.46 15.46 0 0 1 .25-7.163c.62-2.252 1.745-4.35 3.279-6.193 1.528-1.834 3.464-3.416 5.72-4.642C207.4 1.563 209.976.69 212.793.273a24.96 24.96 0 0 1 4.104-.269 24.955 24.955 0 0 1 3.996.392" fill="#F29200"/><path d="M45.037 339.264l-15.908 45.184h7.023l3.362-10.106h16.598l3.39 10.106h6.996L50.59 339.264h-5.553zm2.732 9.242h.12l6.333 19.768H41.434l6.335-19.768zM97.081 339.264v45.184h27.958v-6.443h-21.334v-38.74zM188.17 339.264l-12.309 29.452-12.549-29.452h-6.244v45.184h6.627V356.27h.12l9.158 21.7h5.527l9.161-21.7h.15v28.18h6.626v-45.185zM229.855 339.264v45.184h27.958v-6.443h-21.331v-13.3h18.209v-6.07h-18.21v-12.929h21.332v-6.442z" fill="#6A9DC1"/><path d="M296.469 359.07h10.05c2.488-.042 4.354-.787 5.598-2.238 1.223-1.347 1.836-3.004 1.836-4.972-.041-2.36-.772-4.069-2.197-5.127-1.124-.932-2.75-1.398-4.876-1.398h-10.411v13.735zm-6.627-19.806h17.1c3.646 0 6.623.992 8.925 2.976 2.774 2.251 4.22 5.465 4.34 9.638-.081 6.135-2.896 10.308-8.451 12.52l10.13 20.05h-7.872l-9.06-19.31h-8.485v19.31h-6.627v-45.184z" fill="#6B9DC1"/><g transform="translate(353 338.448)"><mask id="d" fill="#fff"><use xlink:href="#c"/></mask><path fill="#6B9DC1" mask="url(#d)" d="M.237.816h27.96v6.442H6.862v12.93h18.21v6.068H6.863v13.301h21.333V46H.237z"/></g><path d="M115.695 178.079V249.8c0 10.729-.565 20.498-1.69 29.304-1.125 8.812-3.575 16.326-7.351 22.552-3.773 6.226-9.305 11.06-16.588 14.503-7.285 3.442-17.022 5.164-29.204 5.164-11.922 0-22.122-2.91-30.598-8.742l7.154-26.621c1.322 1.06 4.136 2.383 8.442 3.974 4.303 1.588 9.303 2.383 15.002 2.383 4.897 0 8.804-.826 11.72-2.483 2.912-1.655 5.166-4.203 6.755-7.65 1.59-3.442 2.614-7.848 3.079-13.21.463-5.365.696-11.753.696-19.174v-36.463l-.002-2.727c0-17.964 14.563-32.527 32.527-32.527l.058-.005zM272.343 178.09c0 15.797 12.806 28.603 28.603 28.603l3.127-.003h39.005l-73.51 88.013v24.437H381.42v-28.611h-70.726l69.932-88.011v-24.44H272.349l-.006.012zM210.352 272.706a26.79 26.79 0 0 1-.027-1.206c0-14.425 11.694-26.12 26.12-26.12.318 0 .636.007.952.017l.44-.008h29.054s.614 32.129-12.843 51.296c-15.764 22.454-46.383 24.016-53.465 23.405-9.237-.797-18.014-1.754-26.225-5.265-8.213-3.507-15.397-8.442-21.554-14.802-6.16-6.357-11.028-14.004-14.603-22.945-3.577-8.94-5.365-18.775-5.365-29.505 0-9.666 1.788-18.805 5.365-27.417 3.575-8.607 8.508-16.093 14.8-22.45 6.289-6.356 13.74-11.39 22.352-15.1 8.607-3.706 17.88-5.562 27.813-5.562 13.114 0 24.568 2.75 34.372 8.245 9.799 5.498 17.15 13.014 22.053 22.55l-24.238 18.278c-3.18-6.357-7.783-11.291-13.81-14.802-6.027-3.506-12.548-5.264-19.57-5.264-5.431 0-10.363 1.092-14.8 3.277-4.44 2.186-8.244 5.233-11.424 9.139-3.177 3.909-5.63 8.444-7.35 13.61-1.724 5.165-2.583 10.728-2.583 16.689 0 6.094.926 11.722 2.782 16.886 1.853 5.167 4.437 9.637 7.747 13.41a35.267 35.267 0 0 0 11.822 8.843c4.569 2.12 9.635 3.178 15.198 3.178 12.716 0 24.886-3.952 31.575-17.806l.029-.51h-24.65l.033-.061z" fill="#1C335A"/></g></svg>